<svg width="26" height="26" viewBox="0 0 26 26" fill="none" xmlns="http://www.w3.org/2000/svg">
<path d="M13.3933 20.2114L17.9435 15.6069C18.2576 15.2891 18.2546 14.7767 17.9367 14.4626C17.6188 14.1485 17.1065 14.1515 16.7923 14.4694L13.6153 17.6844L13.5454 5.9059C13.5427 5.45899 13.1783 5.0989 12.7314 5.10155C12.508 5.10286 12.3063 5.19463 12.1607 5.34193C12.0152 5.48923 11.9257 5.69205 11.9271 5.91553L11.997 17.694L8.782 14.517C8.46414 14.2028 7.95178 14.2059 7.63766 14.5237C7.32354 14.8416 7.32658 15.354 7.64445 15.6681L12.2489 20.2183C12.5668 20.5324 13.0792 20.5293 13.3933 20.2114Z" fill="#001D45"/>
<path fill-rule="evenodd" clip-rule="evenodd" d="M13 24.2667C19.2224 24.2667 24.2667 19.2224 24.2667 13C24.2667 6.77759 19.2224 1.73333 13 1.73333C6.77759 1.73333 1.73333 6.77759 1.73333 13C1.73333 19.2224 6.77759 24.2667 13 24.2667ZM13 26C20.1797 26 26 20.1797 26 13C26 5.8203 20.1797 0 13 0C5.8203 0 0 5.8203 0 13C0 20.1797 5.8203 26 13 26Z" fill="#001D45"/>
</svg>
