<svg width="52" height="52" viewBox="0 0 52 52" fill="none" xmlns="http://www.w3.org/2000/svg">
<path d="M48.75 29.25V26H39V42.25H42.25V35.75H47.125V32.5H42.25V29.25H48.75Z" fill="#001D45"/>
<path d="M30.875 42.25H24.375V26H30.875C32.1675 26.0013 33.4068 26.5153 34.3207 27.4293C35.2347 28.3432 35.7487 29.5825 35.75 30.875V37.375C35.7487 38.6675 35.2347 39.9068 34.3207 40.8207C33.4068 41.7347 32.1675 42.2487 30.875 42.25ZM27.625 39H30.875C31.3058 38.9996 31.7189 38.8282 32.0236 38.5236C32.3282 38.2189 32.4996 37.8058 32.5 37.375V30.875C32.4996 30.4442 32.3282 30.0311 32.0236 29.7264C31.7189 29.4218 31.3058 29.2504 30.875 29.25H27.625V39Z" fill="#001D45"/>
<path d="M17.875 26H9.75V42.25H13V37.375H17.875C18.7366 37.3737 19.5625 37.0309 20.1717 36.4217C20.7809 35.8125 21.1237 34.9866 21.125 34.125V29.25C21.1241 28.3883 20.7815 27.5622 20.1721 26.9529C19.5628 26.3435 18.7367 26.0009 17.875 26ZM13 34.125V29.25H17.875L17.8766 34.125H13Z" fill="#001D45"/>
<path d="M35.75 22.7502V16.2502C35.7557 16.0366 35.7151 15.8244 35.631 15.628C35.5468 15.4316 35.4211 15.2558 35.2625 15.1127L23.8875 3.73769C23.7444 3.579 23.5686 3.45323 23.3723 3.36907C23.1759 3.2849 22.9636 3.24434 22.75 3.25019H6.5C5.63884 3.25276 4.81368 3.59599 4.20474 4.20493C3.59581 4.81387 3.25257 5.63902 3.25 6.50019V45.5002C3.25 46.3621 3.59241 47.1888 4.2019 47.7983C4.8114 48.4078 5.63805 48.7502 6.5 48.7502H32.5V45.5002H6.5V6.50019H19.5V16.2502C19.5026 17.1114 19.8458 17.9365 20.4547 18.5454C21.0637 19.1544 21.8888 19.4976 22.75 19.5002H32.5V22.7502H35.75ZM22.75 16.2502V7.15019L31.85 16.2502H22.75Z" fill="#001D45"/>
<path d="M35.75 22.7506V16.2506C35.7557 16.037 35.7151 15.8247 35.631 15.6284C35.5468 15.432 35.4211 15.2562 35.2625 15.1131L23.8875 3.73805C23.7444 3.57936 23.5686 3.4536 23.3723 3.36943C23.1759 3.28527 22.9636 3.24471 22.75 3.25055H6.5C5.63884 3.25312 4.81368 3.59636 4.20474 4.2053C3.59581 4.81423 3.25257 5.63939 3.25 6.50055V45.5006C3.25 46.3625 3.59241 47.1892 4.2019 47.7986C4.8114 48.4081 5.63805 48.7506 6.5 48.7506H32.5V45.5006H6.5V6.50055H19.5V16.2506C19.5026 17.1117 19.8458 17.9369 20.4547 18.5458C21.0637 19.1547 21.8888 19.498 22.75 19.5006H32.5V22.7506H35.75ZM22.75 16.2506V7.15055L31.85 16.2506H22.75Z" fill="#001D45"/>
<path d="M35.75 22.7506V16.2506C35.7557 16.037 35.7151 15.8247 35.631 15.6284C35.5468 15.432 35.4211 15.2562 35.2625 15.1131L23.8875 3.73805C23.7444 3.57936 23.5686 3.4536 23.3723 3.36943C23.1759 3.28527 22.9636 3.24471 22.75 3.25055H6.5C5.63884 3.25312 4.81368 3.59636 4.20474 4.2053C3.59581 4.81423 3.25257 5.63939 3.25 6.50055V45.5006C3.25 46.3625 3.59241 47.1892 4.2019 47.7986C4.8114 48.4081 5.63805 48.7506 6.5 48.7506H32.5V45.5006H6.5V6.50055H19.5V16.2506C19.5026 17.1117 19.8458 17.9369 20.4547 18.5458C21.0637 19.1547 21.8888 19.498 22.75 19.5006H32.5V22.7506H35.75ZM22.75 16.2506V7.15055L31.85 16.2506H22.75Z" fill="#001D45"/>
</svg>
