<svg width="50" height="51" viewBox="0 0 50 51" fill="none" xmlns="http://www.w3.org/2000/svg">
<path d="M23.5352 22.5703C23.5352 16.9169 18.9347 12.3164 13.2812 12.3164C7.62783 12.3164 3.02734 16.9169 3.02734 22.5703C3.02734 28.2237 7.62783 32.8242 13.2812 32.8242C18.9347 32.8242 23.5352 28.2237 23.5352 22.5703ZM13.2812 29.8945C9.24287 29.8945 5.95703 26.6087 5.95703 22.5703C5.95703 18.5319 9.24287 15.2461 13.2812 15.2461C17.3196 15.2461 20.6055 18.5319 20.6055 22.5703C20.6055 26.6087 17.3196 29.8945 13.2812 29.8945ZM13.2812 32.8242C6.01143 32.8242 0 38.738 0 46.0078V49.0352C0 49.8448 0.752832 50.5 1.5625 50.5H25C25.8097 50.5 26.4648 49.8448 26.4648 49.0352V46.0078C26.4648 38.738 20.5511 32.8242 13.2812 32.8242ZM23.5352 47.5703H3.02734V46.0078C3.02734 40.3544 7.62783 35.7539 13.2812 35.7539C18.9347 35.7539 23.5352 40.3544 23.5352 46.0078V47.5703ZM36.7188 21.0078C29.4489 21.0078 23.5352 26.9216 23.5352 34.1914V37.2188C23.5352 38.0284 24.1903 38.6836 25 38.6836H48.4375C49.2472 38.6836 50 38.0284 50 37.2188V34.1914C50 26.9216 43.9886 21.0078 36.7188 21.0078ZM46.9727 35.7539H26.4648V34.1914C26.4648 28.538 31.0653 23.9375 36.7188 23.9375C42.3722 23.9375 46.9727 28.538 46.9727 34.1914V35.7539ZM46.9727 10.7539C46.9727 5.10049 42.3722 0.5 36.7188 0.5C31.0653 0.5 26.4648 5.10049 26.4648 10.7539C26.4648 16.4073 31.0653 21.0078 36.7188 21.0078C42.3722 21.0078 46.9727 16.4073 46.9727 10.7539ZM36.7188 18.0781C32.6804 18.0781 29.3945 14.7923 29.3945 10.7539C29.3945 6.71553 32.6804 3.42969 36.7188 3.42969C40.7571 3.42969 44.043 6.71553 44.043 10.7539C44.043 14.7923 40.7571 18.0781 36.7188 18.0781Z" fill="#001D45"/>
</svg>
