<svg width="50" height="51" viewBox="0 0 50 51" fill="none" xmlns="http://www.w3.org/2000/svg">
<path d="M10.2539 24.1328H27.832C28.641 24.1328 29.2969 23.477 29.2969 22.668C29.2969 21.859 28.641 21.2031 27.832 21.2031H10.2539C9.44492 21.2031 8.78906 21.859 8.78906 22.668C8.78906 23.477 9.44492 24.1328 10.2539 24.1328ZM10.2539 18.2734H27.832C28.641 18.2734 29.2969 17.6176 29.2969 16.8086C29.2969 15.9996 28.641 15.3438 27.832 15.3438H10.2539C9.44492 15.3438 8.78906 15.9996 8.78906 16.8086C8.78906 17.6176 9.44492 18.2734 10.2539 18.2734ZM13.1836 12.4141H24.9023C25.7113 12.4141 26.3672 11.7582 26.3672 10.9492C26.3672 10.1402 25.7113 9.48438 24.9023 9.48438H13.1836C12.3746 9.48438 11.7188 10.1402 11.7188 10.9492C11.7188 11.7582 12.3746 12.4141 13.1836 12.4141ZM48.5352 9.48438H42.6758C41.8668 9.48438 41.2109 10.1402 41.2109 10.9492V43.1758C41.2109 45.0854 42.4356 46.7137 44.1406 47.3184V49.0352C44.1406 49.8441 44.7965 50.5 45.6055 50.5C46.4145 50.5 47.0703 49.8441 47.0703 49.0352V47.3184C48.7753 46.7137 50 45.0854 50 43.1758V10.9492C50 10.1402 49.3441 9.48438 48.5352 9.48438ZM47.0703 43.1758C47.0703 43.9835 46.4132 44.6406 45.6055 44.6406C44.7978 44.6406 44.1406 43.9835 44.1406 43.1758V21.2031H47.0703V43.1758ZM47.0703 18.2734H44.1406V12.4141H47.0703V18.2734ZM36.6211 0.5H1.46484C0.655859 0.5 0 1.15586 0 1.96484V49.0352C0 49.8441 0.655859 50.5 1.46484 50.5C3.69834 50.5 27.8432 50.5 27.8317 50.5C28.228 50.5 28.6082 50.3309 28.8684 50.0704L37.6569 41.2818C37.6997 41.2195 38.0859 40.8727 38.0859 40.2461V1.96484C38.0859 1.15586 37.4301 0.5 36.6211 0.5ZM29.2969 45.4987V41.7109H33.0847L29.2969 45.4987ZM35.1562 38.7812H27.832C27.023 38.7812 26.3672 39.4371 26.3672 40.2461V47.5703H2.92969V3.42969H35.1562V38.7812ZM8.36006 41.2819L11.7188 37.9231V40.2461C11.7188 40.8386 12.0757 41.3728 12.623 41.5994C13.1704 41.8262 13.8005 41.7008 14.2194 41.2819L14.7412 40.7602C14.9494 41.3156 15.4852 41.7109 16.1133 41.7109H21.9727C22.7816 41.7109 23.4375 41.0551 23.4375 40.2461C23.4375 39.4371 22.7816 38.7812 21.9727 38.7812H17.5781V37.3164C17.5781 36.7239 17.2212 36.1897 16.6738 35.9631C16.1264 35.7363 15.4963 35.8616 15.0774 36.2806L14.6484 36.7097V34.3867C14.6484 33.7942 14.2915 33.2601 13.7441 33.0334C13.1967 32.8065 12.5666 32.932 12.1478 33.3509L6.28838 39.2103C5.71631 39.7823 5.71631 40.7098 6.28838 41.2818C6.86045 41.854 7.78799 41.854 8.36006 41.2819ZM10.2539 29.9922H27.832C28.641 29.9922 29.2969 29.3363 29.2969 28.5273C29.2969 27.7184 28.641 27.0625 27.832 27.0625H10.2539C9.44492 27.0625 8.78906 27.7184 8.78906 28.5273C8.78906 29.3363 9.44492 29.9922 10.2539 29.9922Z" fill="#001D45"/>
</svg>
