<svg width="50" height="37" viewBox="0 0 50 37" fill="none" xmlns="http://www.w3.org/2000/svg">
<path d="M33.8867 24.3594H39.7461C40.5551 24.3594 41.2109 23.7035 41.2109 22.8945V8.24609C41.2109 7.43711 40.5551 6.78125 39.7461 6.78125H33.8867C33.0777 6.78125 32.4219 7.43711 32.4219 8.24609V22.8945C32.4219 23.7035 33.0777 24.3594 33.8867 24.3594ZM35.3516 9.71094H38.2812V21.4297H35.3516V9.71094ZM48.5352 27.2891H46.8184C46.981 26.8306 47.0703 26.3377 47.0703 25.8242V5.31641C47.0703 2.89326 45.0989 0.921875 42.6758 0.921875H7.32422C4.90107 0.921875 2.92969 2.89326 2.92969 5.31641V25.8242C2.92969 26.3377 3.01904 26.8306 3.18164 27.2891H1.46484C0.655859 27.2891 0 27.9449 0 28.7539C0 32.7925 3.28564 36.0781 7.32422 36.0781H42.6758C46.7144 36.0781 50 32.7925 50 28.7539C50 27.9449 49.3441 27.2891 48.5352 27.2891ZM5.85938 5.31641C5.85938 4.50869 6.5165 3.85156 7.32422 3.85156H42.6758C43.4835 3.85156 44.1406 4.50869 44.1406 5.31641V25.8242C44.1406 26.6319 43.4835 27.2891 42.6758 27.2891H7.32422C6.5165 27.2891 5.85938 26.6319 5.85938 25.8242V5.31641ZM42.6758 33.1484H7.32422C5.41445 33.1484 3.78525 31.9239 3.18066 30.2188H46.8193C46.2147 31.9239 44.5855 33.1484 42.6758 33.1484ZM10.2539 24.3594H16.1133C16.9223 24.3594 17.5781 23.7035 17.5781 22.8945V17.0352C17.5781 16.2262 16.9223 15.5703 16.1133 15.5703H10.2539C9.44492 15.5703 8.78906 16.2262 8.78906 17.0352V22.8945C8.78906 23.7035 9.44492 24.3594 10.2539 24.3594ZM11.7188 18.5H14.6484V21.4297H11.7188V18.5ZM22.0703 24.3594H27.9297C28.7387 24.3594 29.3945 23.7035 29.3945 22.8945V14.1055C29.3945 13.2965 28.7387 12.6406 27.9297 12.6406H22.0703C21.2613 12.6406 20.6055 13.2965 20.6055 14.1055V22.8945C20.6055 23.7035 21.2613 24.3594 22.0703 24.3594ZM23.5352 15.5703H26.4648V21.4297H23.5352V15.5703Z" fill="#001D45"/>
</svg>
