<svg width="52" height="43" viewBox="0 0 52 43" fill="none" xmlns="http://www.w3.org/2000/svg">
<path d="M21.125 0.75C19.8321 0.75 18.5921 1.26361 17.6779 2.17785C16.7636 3.09209 16.25 4.33207 16.25 5.625V7.25H4.875C3.58207 7.25 2.34209 7.76361 1.42785 8.67785C0.513615 9.59209 0 10.8321 0 12.125L0 38.125C0 39.4179 0.513615 40.6579 1.42785 41.5721C2.34209 42.4864 3.58207 43 4.875 43H47.125C48.4179 43 49.6579 42.4864 50.5721 41.5721C51.4864 40.6579 52 39.4179 52 38.125V12.125C52 10.8321 51.4864 9.59209 50.5721 8.67785C49.6579 7.76361 48.4179 7.25 47.125 7.25H35.75V5.625C35.75 4.33207 35.2364 3.09209 34.3221 2.17785C33.4079 1.26361 32.1679 0.75 30.875 0.75H21.125ZM21.125 4H30.875C31.306 4 31.7193 4.17121 32.024 4.47595C32.3288 4.7807 32.5 5.19402 32.5 5.625V7.25H19.5V5.625C19.5 5.19402 19.6712 4.7807 19.976 4.47595C20.2807 4.17121 20.694 4 21.125 4ZM27.2545 26.4705L48.75 20.7407V38.125C48.75 38.556 48.5788 38.9693 48.274 39.274C47.9693 39.5788 47.556 39.75 47.125 39.75H4.875C4.44402 39.75 4.0307 39.5788 3.72595 39.274C3.4212 38.9693 3.25 38.556 3.25 38.125V20.7375L24.7455 26.4705C25.5675 26.6894 26.4325 26.6894 27.2545 26.4705ZM4.875 10.5H47.125C47.556 10.5 47.9693 10.6712 48.274 10.976C48.5788 11.2807 48.75 11.694 48.75 12.125V17.377L26.4192 23.331C26.1446 23.4044 25.8554 23.4044 25.5807 23.331L3.25 17.377V12.125C3.25 11.694 3.4212 11.2807 3.72595 10.976C4.0307 10.6712 4.44402 10.5 4.875 10.5Z" fill="#001D45"/>
</svg>
