<svg width="50" height="43" viewBox="0 0 50 43" fill="none" xmlns="http://www.w3.org/2000/svg">
<path d="M49.0234 25.8945C49.0234 25.0534 48.7854 24.267 48.3739 23.5982C49.3652 22.7918 50 21.5632 50 20.1887C50 17.7233 47.9876 15.6406 45.6055 15.6406H38.1836V8.31641C38.1836 4.27783 34.8979 0.992188 30.8594 0.992188C30.0504 0.992188 29.3945 1.64805 29.3945 2.45703V10.4621L23.6954 14.2615C22.1753 15.275 21.1363 16.8248 20.7609 18.5703H17.6758V17.1055C17.6758 16.2965 17.0199 15.6406 16.2109 15.6406H1.46484C0.655859 15.6406 0 16.2965 0 17.1055V40.543C0 41.352 0.655859 42.0078 1.46484 42.0078H16.2109C17.0199 42.0078 17.6758 41.352 17.6758 40.543V39.0781H21.4869C23.5937 40.9721 26.2888 42.0078 29.1432 42.0078H42.6758C45.0989 42.0078 47.0703 40.0364 47.0703 37.6133C47.0703 36.7288 46.8067 35.9052 46.3554 35.2149C47.3839 34.41 48.0469 33.1583 48.0469 31.7539C48.0469 30.8694 47.7833 30.0458 47.3319 29.3556C48.3604 28.5506 49.0234 27.2989 49.0234 25.8945ZM14.7461 39.0781H2.92969V18.5703H14.7461V39.0781ZM46.2576 21.5H44.6289C43.8199 21.5 43.1641 22.1559 43.1641 22.9648C43.1641 23.7738 43.8199 24.4297 44.6289 24.4297C45.4366 24.4297 46.0938 25.0868 46.0938 25.8945C46.0938 26.7022 45.4366 27.3594 44.6289 27.3594C44.5066 27.3594 43.8637 27.3594 43.6523 27.3594C42.8434 27.3594 42.1875 28.0152 42.1875 28.8242C42.1875 29.6332 42.8434 30.2891 43.6523 30.2891C44.4601 30.2891 45.1172 30.9462 45.1172 31.7539C45.1172 32.5616 44.4601 33.2188 43.6523 33.2188C43.5301 33.2188 42.8871 33.2188 42.6758 33.2188C41.8668 33.2188 41.2109 33.8746 41.2109 34.6836C41.2109 35.4926 41.8668 36.1484 42.6758 36.1484C43.4835 36.1484 44.1406 36.8056 44.1406 37.6133C44.1406 38.421 43.4835 39.0781 42.6758 39.0781H29.1432C26.8627 39.0781 24.7187 38.19 23.1061 36.5774C22.8313 36.3027 22.4588 36.1484 22.0703 36.1484H17.6758V21.5H22.0703C22.8793 21.5 23.5352 20.8441 23.5352 20.0352C23.5352 18.6916 24.2025 17.4445 25.3205 16.6992L31.672 12.4649C32.0795 12.1933 32.3243 11.7358 32.3243 11.2461V4.17285C34.0295 4.77744 35.254 6.40664 35.254 8.31641V17.1055C35.254 17.9145 35.9099 18.5703 36.7188 18.5703H45.6056C46.3723 18.5703 47.0704 19.3416 47.0704 20.1887C47.0703 20.7622 46.739 21.2598 46.2576 21.5ZM10.3516 24.4297C11.1605 24.4297 11.8164 23.7738 11.8164 22.9648C11.8164 22.1559 11.1605 21.5 10.3516 21.5C9.54258 21.5 8.88672 22.1559 8.88672 22.9648C8.88672 23.7738 9.54258 24.4297 10.3516 24.4297Z" fill="#001D45"/>
</svg>
