<svg width="55" height="44" viewBox="0 0 55 44" fill="none" xmlns="http://www.w3.org/2000/svg">
<path fill-rule="evenodd" clip-rule="evenodd" d="M32.9176 37.7143C26.7571 37.7143 21.3898 34.2998 18.7194 29.3333H27.6825L29.031 23.5908H35.4294L34.081 29.3333H40.5058L43.9695 14.6925H37.5446L36.1697 20.435H29.7448L31.0933 14.6925H18.7194C21.4163 9.70018 26.7571 6.31158 32.9176 6.31158C39.0781 6.31158 44.4454 9.72604 47.1423 14.6925H54.1224C51.0289 6.13051 42.7004 0 32.9176 0C23.1349 0 14.8063 6.13051 11.7129 14.6667H3.46362L2.7233 17.7966H23.9809L23.3464 20.435H2.08875L1.34843 23.565H22.6061L21.998 26.1775H0.740316L0 29.3333H11.7129C14.8063 37.8695 23.1084 44 32.9176 44C42.7004 44 51.0289 37.8695 54.1224 29.3333H47.1423C44.4454 34.3257 39.0781 37.7143 32.9176 37.7143Z" fill="white"/>
</svg>
