<svg width="56" height="46" viewBox="0 0 56 46" fill="none" xmlns="http://www.w3.org/2000/svg">
<path fill-rule="evenodd" clip-rule="evenodd" d="M33.6746 39.4286C27.3724 39.4286 21.8817 35.8589 19.1499 30.6667H28.3191L29.6985 24.6631H36.2441L34.8647 30.6667H41.4373L44.9806 15.3604H38.408L37.0015 21.3639H30.4288L31.8083 15.3604H19.1499C21.9088 10.1411 27.3724 6.59847 33.6746 6.59847C39.9767 6.59847 45.4674 10.1681 48.2263 15.3604H55.367C52.2024 6.40917 43.6823 0 33.6746 0C23.6669 0 15.1468 6.40917 11.9822 15.3333H3.54327L2.78593 18.6055H24.5324L23.8833 21.3639H2.13678L1.37944 24.6361H23.1259L22.5038 27.3674H0.75734L0 30.6667H11.9822C15.1468 39.5908 23.6398 46 33.6746 46C43.6823 46 52.2024 39.5908 55.367 30.6667H48.2263C45.4674 35.886 39.9767 39.4286 33.6746 39.4286Z" fill="#009ECD"/>
</svg>
