<svg width="52" height="52" viewBox="0 0 52 52" fill="none" xmlns="http://www.w3.org/2000/svg">
<path d="M26 0C20.6634 0 15.5312 1.66481 11.0828 4.82523C9.33116 3.79458 7.03473 4.03041 5.53262 5.53262C3.7506 7.31453 3.7506 10.214 5.53262 11.9961C7.31443 13.7779 10.214 13.778 11.9961 11.9961C13.2987 10.6934 13.6479 8.79389 13.046 7.17001C16.9302 4.46875 21.3819 3.04688 26 3.04688C38.6564 3.04688 48.9531 13.3436 48.9531 26C48.9531 28.9966 48.2895 32.0486 46.9808 35.0712C46.6464 35.8432 47.0013 36.7401 47.7735 37.0745C48.5483 37.41 49.4439 37.0509 49.7768 36.2818C51.252 32.8748 52 29.4154 52 26C52 11.6839 40.3153 0 26 0V0ZM9.84151 9.84151C9.24747 10.4355 8.281 10.4355 7.68696 9.84151C7.09292 9.24747 7.09292 8.281 7.68696 7.68696C8.281 7.09302 9.24737 7.09292 9.84151 7.68696C10.4355 8.281 10.4355 9.24757 9.84151 9.84151ZM40.004 40.004C38.7014 41.3067 38.3522 43.2062 38.9541 44.8301C35.0698 47.5312 30.6181 48.9531 26 48.9531C13.3436 48.9531 3.04688 38.6564 3.04688 26C3.04688 23.0034 3.71048 19.9514 5.01922 16.9288C5.35356 16.1568 4.9987 15.2599 4.22652 14.9255C3.45445 14.5912 2.55745 14.9461 2.2232 15.7182C0.748008 19.1252 0 22.5846 0 26C0 40.3161 11.6847 52 26 52C31.3366 52 36.4688 50.3352 40.9172 47.1748C42.6726 48.2076 44.9681 47.9668 46.4674 46.4674C48.2494 44.6855 48.2494 41.786 46.4674 40.0039C44.6855 38.222 41.786 38.2221 40.004 40.004ZM44.313 44.313C43.7189 44.9072 42.7526 44.907 42.1585 44.313C41.5645 43.719 41.5645 42.7525 42.1585 42.1586C42.7523 41.5647 43.719 41.5646 44.313 42.1586C44.907 42.7524 44.907 43.719 44.313 44.313ZM26 42.7578C35.2403 42.7578 42.7578 35.2403 42.7578 26C42.7578 16.7597 35.2403 9.24219 26 9.24219C16.7597 9.24219 9.24219 16.7597 9.24219 26C9.24219 35.2403 16.7597 42.7578 26 42.7578ZM39.6258 24.4766H33.5877C33.4471 20.7882 32.7979 17.3481 31.7235 14.6619C31.5248 14.1651 31.3128 13.7013 31.0896 13.269C35.686 15.1132 39.0595 19.3773 39.6258 24.4766ZM31.7235 37.3381C32.798 34.6519 33.4472 31.2118 33.5877 27.5234H39.6258C39.0595 32.6227 35.686 36.8868 31.0895 38.731C31.3128 38.2986 31.5247 37.8349 31.7235 37.3381ZM23.1056 15.7935C23.9571 13.6646 25.0933 12.2891 26 12.2891C26.9067 12.2891 28.0429 13.6646 28.8944 15.7935C29.8323 18.138 30.4037 21.1781 30.5386 24.4766H21.4613C21.5963 21.1781 22.1677 18.138 23.1056 15.7935ZM30.5386 27.5234C30.4037 30.8219 29.8322 33.862 28.8944 36.2065C28.0429 38.3354 26.9067 39.7109 26 39.7109C25.0933 39.7109 23.9571 38.3354 23.1056 36.2065C22.1677 33.862 21.5963 30.8219 21.4614 27.5234H30.5386ZM20.9105 13.269C20.6873 13.7013 20.4753 14.1651 20.2766 14.6619C19.2021 17.3481 18.5529 20.7882 18.4124 24.4766H12.3743C12.9405 19.3773 16.314 15.1132 20.9105 13.269ZM18.4123 27.5234C18.5529 31.2118 19.2021 34.6519 20.2765 37.3381C20.4752 37.8349 20.6872 38.2987 20.9104 38.731C16.3139 36.8868 12.9404 32.6227 12.3741 27.5234H18.4123Z" fill="#001D45"/>
</svg>
