<svg width="26" height="26" viewBox="0 0 26 26" fill="none" xmlns="http://www.w3.org/2000/svg">
<path d="M22.6024 2.4375H14.9206C14.3903 2.4375 13.9604 2.86743 13.9604 3.39774C13.9604 3.92805 14.3903 4.35798 14.9206 4.35798H20.2843L10.4008 14.2415C10.0258 14.6165 10.0258 15.2244 10.4008 15.5994C10.5882 15.7869 10.834 15.8807 11.0797 15.8807C11.3254 15.8807 11.5712 15.787 11.7587 15.5994L21.6422 5.71592V11.0796C21.6422 11.6099 22.0722 12.0398 22.6025 12.0398C23.1328 12.0398 23.5627 11.6099 23.5627 11.0796V3.39774C23.5627 2.86743 23.1327 2.4375 22.6024 2.4375Z" fill="#001D45"/>
<path d="M18.7613 12.0402C18.231 12.0402 17.8011 12.4701 17.8011 13.0004V21.6425H4.35794V8.19924H13C13.5303 8.19924 13.9602 7.76932 13.9602 7.23901C13.9602 6.70869 13.5303 6.27881 13 6.27881H3.39774C2.86743 6.27881 2.4375 6.70874 2.4375 7.23905V22.6027C2.4375 23.133 2.86743 23.5629 3.39774 23.5629H18.7614C19.2917 23.5629 19.7216 23.133 19.7216 22.6027V13.0004C19.7216 12.4701 19.2917 12.0402 18.7613 12.0402Z" fill="#001D45"/>
</svg>
