<svg width="40" height="51" viewBox="0 0 40 51" fill="none" xmlns="http://www.w3.org/2000/svg">
<path d="M38.2102 31.6466C37.1726 27.3646 35.2436 23.1923 32.7786 19.8979C31.3988 18.0537 29.8831 16.5273 28.2791 15.3438H31.7189C34.142 15.3438 36.1134 17.3151 36.1134 19.7383C36.1134 20.5473 36.7693 21.2031 37.5782 21.2031C38.3872 21.2031 39.0431 20.5473 39.0431 19.7383C39.0431 15.6997 35.7574 12.4141 31.7189 12.4141H27.095C29.1495 10.1359 30.254 6.58633 30.254 1.96484C30.254 1.15586 29.5982 0.5 28.7892 0.5H25.8595C23.4661 0.5 21.3375 1.6541 20.0001 3.43477C18.6628 1.6541 16.5341 0.5 14.1407 0.5H11.2111C10.4021 0.5 9.74621 1.15586 9.74621 1.96484C9.74621 7.60137 11.3893 11.6436 14.395 13.7287C11.7963 14.9669 9.34807 17.0561 7.2216 19.8979C4.75656 23.1923 2.82766 27.3646 1.79006 31.6466C0.729905 36.0217 0.675998 40.2335 1.6385 43.506C2.84973 47.624 6.84885 50.5001 11.3639 50.5H28.6364H28.6365C33.1512 50.5 37.1508 47.6237 38.3617 43.506C39.3241 40.2335 39.2704 36.0218 38.2102 31.6466ZM12.7187 3.42969H14.1407C16.5639 3.42969 18.5353 5.40107 18.5353 7.82422C18.5353 8.6332 19.1911 9.28906 20.0001 9.28906C20.8091 9.28906 21.465 8.6332 21.465 7.82422C21.465 5.40107 23.4363 3.42969 25.8595 3.42969H27.2816C27.0188 7.82109 25.4425 12.4141 20.0001 12.4141C14.5577 12.4141 12.9816 7.82109 12.7187 3.42969ZM35.5511 42.6794C34.7042 45.5591 31.8609 47.5703 28.6364 47.5703H11.3639C8.13957 47.5703 5.29621 45.5591 4.44924 42.6794C2.74182 36.8739 4.94211 27.8346 9.5674 21.6531C12.6117 17.5845 16.3169 15.3438 20.0001 15.3438C23.6833 15.3438 27.3885 17.5845 30.4329 21.6531C35.0582 27.8346 37.2585 36.8738 35.5511 42.6794ZM18.5353 27.0625H21.465C22.2727 27.0625 22.9298 27.7196 22.9298 28.5273C22.9298 29.3363 23.5857 29.9922 24.3947 29.9922C25.2036 29.9922 25.8595 29.3363 25.8595 28.5273C25.8595 26.1042 23.8881 24.1328 21.465 24.1328V22.668C21.465 21.859 20.8091 21.2031 20.0001 21.2031C19.1911 21.2031 18.5353 21.859 18.5353 22.668V24.1328C16.1121 24.1328 14.1407 26.1042 14.1407 28.5273C14.1407 30.9505 16.1121 32.9219 18.5353 32.9219H21.465C22.2727 32.9219 22.9298 33.579 22.9298 34.3867C22.9298 35.1944 22.2727 35.8516 21.465 35.8516H18.5353C17.7276 35.8516 17.0704 35.1944 17.0704 34.3867C17.0704 33.5777 16.4146 32.9219 15.6056 32.9219C14.7966 32.9219 14.1407 33.5777 14.1407 34.3867C14.1407 36.8099 16.1121 38.7812 18.5353 38.7812V40.2461C18.5353 41.0551 19.1911 41.7109 20.0001 41.7109C20.8091 41.7109 21.465 41.0551 21.465 40.2461V38.7812C23.8881 38.7812 25.8595 36.8099 25.8595 34.3867C25.8595 31.9636 23.8881 29.9922 21.465 29.9922H18.5353C17.7276 29.9922 17.0704 29.3351 17.0704 28.5273C17.0704 27.7196 17.7276 27.0625 18.5353 27.0625Z" fill="#001D45"/>
</svg>
