<svg width="50" height="51" viewBox="0 0 50 51" fill="none" xmlns="http://www.w3.org/2000/svg">
<path d="M48.2826 2.21733C45.9929 -0.0724585 42.2865 -0.0727515 39.9964 2.21733C38.8725 3.34132 31.0822 11.1316 29.9941 12.2197H1.46481C0.655843 12.2197 0 12.8756 0 13.6845V49.0352C0 49.8441 0.655843 50.5 1.46481 50.5H36.8155C37.6244 50.5 38.2803 49.8441 38.2803 49.0352V20.5059C39.3474 19.4388 47.1758 11.6104 48.2826 10.5036C50.5723 8.21385 50.5727 4.50741 48.2826 2.21733ZM35.3507 47.5703H2.92961V15.1492H27.0645L25.6679 16.5459C21.1083 21.1055 17.5318 26.682 15.2792 32.7269H7.32403C6.51507 32.7269 5.85923 33.3827 5.85923 34.1917C5.85923 35.0007 6.51507 35.6555 7.32403 35.6555H16.3074H16.3084C16.4701 35.6555 16.6479 35.624 16.787 35.576C23.2111 33.3538 29.1474 29.6386 33.954 24.832L35.3507 23.4355V47.5703ZM31.8825 22.7606C28.1614 26.4817 23.7163 29.5033 18.8877 31.6123C20.9967 26.7837 24.0183 22.3386 27.7394 18.6175L37.9249 8.43201L42.068 12.5751C41.0082 13.6348 32.8909 21.7522 31.8825 22.7606ZM46.211 8.43201L44.1395 10.5035L39.9964 6.36048L42.068 4.28886C43.2129 3.14396 45.066 3.14387 46.211 4.28886C47.356 5.43385 47.356 7.28692 46.211 8.43201Z" fill="#001D45"/>
</svg>
