<svg width="44" height="51" viewBox="0 0 44 51" fill="none" xmlns="http://www.w3.org/2000/svg">
<path d="M42.5078 0.5H1.49219C0.683203 0.5 0.0273438 1.15586 0.0273438 1.96484V49.0352C0.0273438 49.8441 0.683203 50.5 1.49219 50.5H42.5078C43.3168 50.5 43.9727 49.8441 43.9727 49.0352V1.96484C43.9727 1.15586 43.3168 0.5 42.5078 0.5ZM41.043 47.5703H2.95703V3.42969H41.043V47.5703ZM7.35156 21.1055H36.6484C37.4574 21.1055 38.1133 20.4496 38.1133 19.6406V7.82422C38.1133 7.01523 37.4574 6.35938 36.6484 6.35938H7.35156C6.54258 6.35938 5.88672 7.01523 5.88672 7.82422V19.6406C5.88672 20.4496 6.54258 21.1055 7.35156 21.1055ZM8.81641 9.28906H35.1836V18.1758H8.81641V9.28906ZM7.35156 32.8242H13.2109C14.0199 32.8242 14.6758 32.1684 14.6758 31.3594V25.5C14.6758 24.691 14.0199 24.0352 13.2109 24.0352H7.35156C6.54258 24.0352 5.88672 24.691 5.88672 25.5V31.3594C5.88672 32.1684 6.54258 32.8242 7.35156 32.8242ZM8.81641 26.9648H11.7461V29.8945H8.81641V26.9648ZM7.35156 44.543H13.2109C14.0199 44.543 14.6758 43.8871 14.6758 43.0781V37.2188C14.6758 36.4098 14.0199 35.7539 13.2109 35.7539H7.35156C6.54258 35.7539 5.88672 36.4098 5.88672 37.2188V43.0781C5.88672 43.8871 6.54258 44.543 7.35156 44.543ZM8.81641 38.6836H11.7461V41.6133H8.81641V38.6836ZM24.9297 24.0352H19.0703C18.2613 24.0352 17.6055 24.691 17.6055 25.5V31.3594C17.6055 32.1684 18.2613 32.8242 19.0703 32.8242H24.9297C25.7387 32.8242 26.3945 32.1684 26.3945 31.3594V25.5C26.3945 24.691 25.7387 24.0352 24.9297 24.0352ZM23.4648 29.8945H20.5352V26.9648H23.4648V29.8945ZM24.9297 35.7539H19.0703C18.2613 35.7539 17.6055 36.4098 17.6055 37.2188V43.0781C17.6055 43.8871 18.2613 44.543 19.0703 44.543H24.9297C25.7387 44.543 26.3945 43.8871 26.3945 43.0781V37.2188C26.3945 36.4098 25.7387 35.7539 24.9297 35.7539ZM23.4648 41.6133H20.5352V38.6836H23.4648V41.6133ZM36.6484 24.0352H30.7891C29.9801 24.0352 29.3242 24.691 29.3242 25.5V31.3594C29.3242 32.1684 29.9801 32.8242 30.7891 32.8242H36.6484C37.4574 32.8242 38.1133 32.1684 38.1133 31.3594V25.5C38.1133 24.691 37.4574 24.0352 36.6484 24.0352ZM35.1836 29.8945H32.2539V26.9648H35.1836V29.8945ZM36.6484 35.7539H30.7891C29.9801 35.7539 29.3242 36.4098 29.3242 37.2188V43.0781C29.3242 43.8871 29.9801 44.543 30.7891 44.543H36.6484C37.4574 44.543 38.1133 43.8871 38.1133 43.0781V37.2188C38.1133 36.4098 37.4574 35.7539 36.6484 35.7539ZM35.1836 41.6133H32.2539V38.6836H35.1836V41.6133ZM16.1406 12.3164H13.2109C12.402 12.3164 11.7461 12.9723 11.7461 13.7812C11.7461 14.5902 12.402 15.2461 13.2109 15.2461H16.1406C16.9496 15.2461 17.6055 14.5902 17.6055 13.7812C17.6055 12.9723 16.9496 12.3164 16.1406 12.3164Z" fill="#001D45"/>
</svg>
