<svg width="24" height="24" viewBox="0 0 24 24" fill="none" xmlns="http://www.w3.org/2000/svg">
<path d="M23.7941 22.7997L17.2806 16.2862C18.7793 14.5584 19.6875 12.3052 19.6875 9.84375C19.6875 4.41591 15.2716 0 9.84375 0C4.41591 0 0 4.41591 0 9.84375C0 15.2716 4.41591 19.6875 9.84375 19.6875C12.3052 19.6875 14.5584 18.7793 16.2862 17.2806L22.7997 23.7941C23.0743 24.0686 23.5195 24.0687 23.7941 23.7941C24.0686 23.5195 24.0686 23.0743 23.7941 22.7997ZM9.84375 18.2812C5.19131 18.2812 1.40625 14.4962 1.40625 9.84375C1.40625 5.19131 5.19131 1.40625 9.84375 1.40625C14.4962 1.40625 18.2812 5.19131 18.2812 9.84375C18.2812 14.4722 14.5187 18.2812 9.84375 18.2812Z" fill="#001D45"/>
</svg>
